<?xml version="1.0" encoding="utf-8"?>
<!-- Generator: Adobe Illustrator 19.2.1, SVG Export Plug-In . SVG Version: 6.00 Build 0)  -->
<svg version="1.1" id="Layer_1" xmlns="http://www.w3.org/2000/svg" xmlns:xlink="http://www.w3.org/1999/xlink" x="0px" y="0px"
	 viewBox="0 0 159 41" style="enable-background:new 0 0 159 41;" xml:space="preserve">
<style type="text/css">
	.st0{fill:none;}
	.st1{fill:#448AFF;}
</style>
<g>
	<path class="st0" d="M75.5,14.6c-5.2,0-7.4,4.8-7.8,8.3h14.9C82.6,19.6,81.2,14.6,75.5,14.6z"/>
	<path d="M52,3.5l-5,1.3v6.7h-4.4v3.9H47v15.3c0,3.3,0.5,5.8,2,7.3c1.4,1.5,3.4,2.3,5.5,2.1c1.5,0,3.1-0.2,4.5-0.7l-0.2-3.8
		c-1,0.2-2,0.4-3,0.3c-2.8,0-3.8-2-3.8-5.5V15.5h7.3v-3.9H52V3.5z"/>
	<rect x="31.3" y="0.6" width="5" height="39.1"/>
	<path class="st1" d="M25.9,11.6h-5.5l-3.9,6c-0.9,1.5-1.9,3-2.8,4.6h-0.2c-0.9-1.6-1.8-3-2.8-4.6l-4-6H0.9l9.5,13.7l-10,14.3h5.6
		l4.1-6.3c1-1.7,2-3.2,3-4.9h0.1c1,1.7,1.9,3.2,3,4.9l4.1,6.3h5.8l-9.9-14.5L25.9,11.6z"/>
	<path d="M124.6,10.9c-2.2-0.1-4.4,0.6-6.2,2c-1.3,1-2.4,2.2-3.1,3.7h-0.1c-1.2-3.4-4.4-5.7-7.9-5.6c-3.7-0.1-7.1,1.9-8.8,5.2h-0.2
		L98,11.6h-4.5c0.2,2.3,0.2,4.7,0.2,7.6v20.5h5V22.7c0-0.8,0.1-1.7,0.4-2.5c0.8-2.6,3.1-5.1,6.3-5.1c3.9,0,5.9,3.2,5.9,7.7v16.8h5
		V22.3c0-0.9,0.1-1.7,0.4-2.6c0.8-2.7,3.2-4.5,6-4.6c4.1,0,6.1,3.2,6.1,8.6v15.9h5V23.1C133.9,13.4,128.4,10.9,124.6,10.9z"/>
	<path d="M151.2,23.4c-3.7-1.4-5.3-2.4-5.3-4.8c0-2.1,1.7-3.8,4.7-3.8c2,0,4,0.6,5.7,1.6l1.3-3.7c-2.1-1.2-4.5-1.8-6.9-1.7
		c-6,0-9.7,3.7-9.7,8.2c0,3.4,2.4,6.1,7.4,7.9c3.8,1.4,5.2,2.7,5.2,5.2c0,2.3-1.7,4.2-5.5,4.2c-2.4-0.1-4.7-0.8-6.7-2l-1.3,3.9
		c2.4,1.3,5.1,2,7.9,1.9c6.7,0,10.5-3.5,10.5-8.4C158.6,27.7,156.1,25.2,151.2,23.4z"/>
	<path d="M75.9,10.9c-8.2,0-13.2,6.7-13.2,15.1c0,8.5,5.2,14.2,13.8,14.2c3.2,0.1,6.4-0.5,9.3-1.7L85,34.8c-2.5,1-5.1,1.5-7.8,1.5
		c-5.1,0-9.5-2.8-9.6-9.7h19.7v0c0.1-0.8,0.2-1.6,0.2-2.4C87.5,19,85,10.9,75.9,10.9z M67.6,22.9c0.4-3.5,2.7-8.3,7.8-8.3
		c5.7,0,7.1,5,7.1,8.3H67.6z"/>
</g>
</svg>
